<svg width="41" height="31" viewBox="0 0 41 31" fill="none" xmlns="http://www.w3.org/2000/svg">
<path d="M13.5811 0.602417H27.4208C31.9089 0.602417 35.5219 4.18598 35.5219 8.63736V22.3641C35.5219 26.8154 31.9089 30.399 27.4208 30.399H13.5811C9.09306 30.399 5.47998 26.8154 5.47998 22.3641V8.63736C5.47998 4.18598 9.09306 0.602417 13.5811 0.602417Z" fill="#8CD469"/>
<path d="M27.4204 0.602173C31.9084 0.602173 35.5217 4.18597 35.5217 8.63735V22.364C35.5217 26.8154 31.9084 30.3985 27.4204 30.3985H13.5809C9.25129 30.3985 5.73796 27.0636 5.49487 22.8318C6.33212 26.0795 9.29114 28.4669 12.8337 28.4669H25.7761C29.9729 28.4669 33.3519 25.116 33.3519 20.9532V8.11657C33.3519 3.95399 29.9731 0.602173 25.7761 0.602173H27.4206H27.4204Z" fill="#4DA831"/>
<path fill-rule="evenodd" clip-rule="evenodd" d="M27.4208 0C32.2344 0 36.1278 3.86372 36.1278 8.63806V22.364C36.1278 27.1386 32.2344 31 27.4208 31H13.5815C8.76786 31 4.87231 27.1384 4.87231 22.364V8.63806C4.87231 3.86348 8.76786 0 13.5815 0H27.4208ZM6.08657 8.63806V22.364C6.08657 26.4925 9.41954 29.7982 13.5817 29.7982H27.421C31.5832 29.7982 34.9162 26.4925 34.9162 22.364V8.63806C34.9162 4.50985 31.5832 1.20387 27.421 1.20387H13.5817C9.41954 1.20387 6.08657 4.50985 6.08657 8.63806Z" fill="#18250C"/>
<path d="M27.4211 0.602173C31.9089 0.602173 35.5217 4.18597 35.5217 8.63736V14.0803L27.7943 7.90446L24.3475 11.9059L20.501 7.51463L16.6545 11.9059L13.2076 7.90446L5.48022 14.0803V8.63736C5.48022 4.18597 9.09306 0.602173 13.5811 0.602173H27.4213H27.4211Z" fill="#154C1E"/>
<path d="M25.4653 9.88587L24.1772 11.7955L20.3173 7.72461L20.4785 6.83105L25.4653 9.88587ZM35.5217 10.5643V14.0803L27.7943 7.90444L27.6 8.13011L27.7768 7.58102L35.5219 10.5643H35.5217ZM17.7496 10.0535L16.6542 11.9059L13.251 7.95495L13.2951 7.22907L17.7496 10.0535Z" fill="#0E3C15"/>
<path fill-rule="evenodd" clip-rule="evenodd" d="M27.4208 0C32.2344 0 36.1278 3.86372 36.1278 8.63805V15.3389L27.8732 8.74025L24.3519 12.8282L20.5011 8.43133L16.6506 12.8282L13.1293 8.74025L4.87256 15.3389V8.63805C4.87256 3.86372 8.76809 0 13.5817 0H27.421H27.4208ZM6.08658 8.63805V12.8238L13.2861 7.0696L16.6575 10.9843L20.5014 6.59629L24.3455 10.9843L27.7169 7.0696L34.9164 12.8238V8.63805C34.9164 4.50962 31.5834 1.20387 27.4212 1.20387H13.582C9.41979 1.20387 6.08682 4.50962 6.08682 8.63805H6.08658ZM12.064 15.5683C12.6525 14.9865 13.4507 14.6595 14.283 14.6595C15.1153 14.6595 15.9134 14.9865 16.5019 15.5683C17.0904 16.1501 17.4209 16.9391 17.4209 17.7618C17.4209 18.5845 17.0904 19.3735 16.5019 19.9554C15.9134 20.537 15.1153 20.8639 14.283 20.8639C13.4507 20.8639 12.6525 20.537 12.064 19.9554C11.4755 19.3735 11.145 18.5845 11.145 17.7618C11.145 16.9391 11.4755 16.1501 12.064 15.5683Z" fill="#18250C"/>
<path d="M0.608154 14.7292H5.4805V19.2503H0.608154V14.7292Z" fill="#4DA831"/>
<path fill-rule="evenodd" clip-rule="evenodd" d="M6.08639 14.1281V19.8513H0V14.1281H6.08639ZM1.21426 18.6493H4.87449V15.3321H1.21426V18.6493Z" fill="#18250C"/>
<path d="M35.5212 14.7292H40.3936V19.2503H35.5212V14.7292Z" fill="#4DA831"/>
<path d="M0.60791 13.3096H2.7674V20.6701H0.60791V13.3096Z" fill="#8CD469"/>
<path fill-rule="evenodd" clip-rule="evenodd" d="M40.9997 14.1281V19.8513H34.9133V14.1281H40.9997ZM36.1276 18.6493H39.7855V15.3321H36.1276V18.6493Z" fill="#18250C"/>
<path d="M38.2344 13.3096H40.3939V20.6701H38.2344V13.3096Z" fill="#8CD469"/>
<path d="M23.9912 23.0531C23.9912 24.372 22.4346 25.8256 20.5007 25.8256C18.5669 25.8256 17.01 24.372 17.01 23.0531C17.01 23.0531 17.5759 22.0342 20.5007 22.0342C23.4256 22.0342 23.9912 23.0531 23.9912 23.0531Z" fill="#18250C"/>
<path d="M23.3779 24.7056C22.6743 25.3611 21.6482 25.826 20.5009 25.826C19.3536 25.826 18.3268 25.3614 17.6233 24.7056C18.1288 23.8869 19.2247 23.209 20.5009 23.209C21.7774 23.209 22.8728 23.8869 23.3779 24.7056Z" fill="#C83737"/>
<path fill-rule="evenodd" clip-rule="evenodd" d="M23.617 22.0062C23.923 22.1598 24.1369 22.3228 24.28 22.4615C24.4234 22.6002 24.5219 22.7615 24.5219 22.7615L24.5981 22.8969V23.0525C24.5981 23.9469 24.0985 24.7773 23.3616 25.3942C22.6246 26.0111 21.6211 26.4274 20.5009 26.4274C19.3808 26.4274 18.3752 26.0111 17.6381 25.3942C16.9013 24.7773 16.4041 23.9469 16.4041 23.0525V22.8969L16.4779 22.7615C16.4779 22.7615 16.5762 22.6004 16.7198 22.4615C16.8631 22.3228 17.0791 22.1596 17.3849 22.0062C17.9967 21.6987 18.9674 21.433 20.5007 21.433C22.0342 21.433 23.0047 21.6987 23.6165 22.0062H23.617ZM17.934 23.0814C17.8142 23.1415 17.7794 23.179 17.7169 23.226C17.7763 23.624 17.9616 24.0887 18.4223 24.4745C18.9474 24.9141 19.6875 25.2231 20.5012 25.2231C21.3149 25.2231 22.055 24.9139 22.58 24.4745C23.041 24.0887 23.2263 23.6238 23.2857 23.226C23.2232 23.179 23.1881 23.1415 23.0683 23.0814C22.6661 22.8796 21.8925 22.635 20.5012 22.635C19.1099 22.635 18.3363 22.8796 17.934 23.0814ZM31.8718 22.3128L31.0714 23.1065L31.5604 23.5922L31.3453 23.8055L30.8563 23.3195L30.0455 24.1237L30.5031 24.5786L30.2902 24.7916L29.8312 24.3363L28.781 25.3779L29.2241 25.8182L29.0092 26.0315L28.566 25.5912L27.5418 26.6068L27.2192 26.2892L28.2449 25.2719L27.8466 24.876L28.0614 24.6628L28.4599 25.0587L29.5098 24.0173L29.1257 23.6364L29.3408 23.4231L29.7244 23.8043L30.5352 23.0001L30.1827 22.6498L30.3978 22.4367L30.7502 22.7868L31.5491 21.9943L31.8718 22.3121V22.3128ZM13.0308 11.0329L12.2303 11.8269L12.7193 12.3128L12.5064 12.5237L12.0167 12.0387L11.2051 12.8436L11.6644 13.2992L11.4494 13.5101L10.9908 13.0562L9.94137 14.0971L10.3853 14.5365L10.1703 14.7498L9.72634 14.3104L8.70094 15.3274L8.37815 15.0075L9.40332 13.9907L9.00533 13.5967L9.22036 13.3834L9.61835 13.7774L10.6678 12.7365L10.2844 12.357L10.4995 12.1437L10.8826 12.5237L11.6939 11.7191L11.3419 11.3706L11.5567 11.1576L11.908 11.5067L12.708 10.7133L13.0305 11.0332L13.0308 11.0329ZM2.15974 12.708C2.8218 12.708 3.374 13.2557 3.374 13.9124V20.0687C3.374 20.7252 2.8218 21.2705 2.15974 21.2705H1.2145C0.552437 21.2705 0.000244141 20.7252 0.000244141 20.0687V13.9124C0.000244141 13.2557 0.552437 12.708 1.2145 12.708H2.15974ZM1.2145 20.0687H2.15974V13.9124H1.2145V20.0687ZM39.7881 12.708C40.4502 12.708 41 13.2557 41 13.9124V20.0687C41 20.7252 40.4502 21.2705 39.7881 21.2705H38.8405C38.1784 21.2705 37.6263 20.7252 37.6263 20.0687V13.9124C37.6263 13.2557 38.1784 12.708 38.8405 12.708H39.7881ZM38.8405 20.0687H39.7881V13.9124H38.8405V20.0687Z" fill="#18250C"/>
<path d="M12.5702 17.5371C12.7845 17.3252 13.0754 17.2062 13.3786 17.2062C14.0101 17.2062 14.5222 17.7122 14.5222 18.3364C14.5222 18.6364 14.4017 18.9238 14.1874 19.1359C13.9728 19.3478 13.6819 19.4668 13.3789 19.4668C13.0757 19.4668 12.7847 19.3478 12.5704 19.1359C12.3558 18.9238 12.2354 18.6364 12.2354 18.3364C12.2354 18.0366 12.3558 17.7492 12.5704 17.5371H12.5702ZM15.3125 15.8241C15.648 15.8241 15.9199 16.093 15.9199 16.4246C15.9199 16.5839 15.856 16.7368 15.7421 16.8493C15.628 16.962 15.4735 17.0252 15.3125 17.0252C15.1512 17.0252 14.9968 16.962 14.8829 16.8493C14.7688 16.7366 14.7049 16.5839 14.7049 16.4246C14.7049 16.093 14.9767 15.8241 15.3125 15.8241Z" fill="#DBF2D0"/>
<path d="M28.98 15.4739C29.1363 15.7679 29.0232 16.1318 28.7268 16.287L25.9087 17.7645L28.7268 19.2441C29.0232 19.3994 29.1363 19.7633 28.98 20.0575C28.8235 20.3512 28.4563 20.4637 28.1602 20.3084L24.3252 18.2977C24.1264 18.1932 24.0022 17.9886 24.0022 17.7657C24.0022 17.5426 24.1264 17.338 24.3252 17.2337L28.1602 15.2228C28.3024 15.1489 28.4684 15.1334 28.6216 15.1804C28.7756 15.2272 28.9046 15.3327 28.98 15.4737V15.4739Z" fill="#18250C"/>
</svg>
