<svg width="33" height="25" viewBox="0 0 33 25" fill="none" xmlns="http://www.w3.org/2000/svg">
<path d="M10.9311 1.08667H22.0703C25.6827 1.08667 28.5908 3.86104 28.5908 7.30727V17.9344C28.5908 21.3806 25.6827 24.155 22.0703 24.155H10.9311C7.31873 24.155 4.41064 21.3806 4.41064 17.9344V7.30727C4.41064 3.86104 7.31873 1.08667 10.9311 1.08667Z" fill="#8CD469"/>
<path d="M22.07 1.08667C25.6823 1.08667 28.5906 3.86122 28.5906 7.30746V17.9346C28.5906 21.3808 25.6823 24.1548 22.07 24.1548H10.9309C7.44607 24.1548 4.61826 21.5729 4.42261 18.2967C5.09649 20.8111 7.47814 22.6594 10.3295 22.6594H20.7465C24.1245 22.6594 26.8441 20.0651 26.8441 16.8423V6.90426C26.8441 3.68162 24.1246 1.08667 20.7465 1.08667H22.0702H22.07Z" fill="#4DA831"/>
<path fill-rule="evenodd" clip-rule="evenodd" d="M22.0704 0.620361C25.9448 0.620361 29.0785 3.61163 29.0785 7.30789V17.9345C29.0785 21.6309 25.9448 24.6204 22.0704 24.6204H10.9315C7.05707 24.6204 3.92163 21.6307 3.92163 17.9345V7.30789C3.92163 3.61144 7.05707 0.620361 10.9315 0.620361H22.0704ZM4.89896 7.30789V17.9345C4.89896 21.1307 7.5816 23.69 10.9317 23.69H22.0706C25.4206 23.69 28.1033 21.1307 28.1033 17.9345V7.30789C28.1033 4.11186 25.4206 1.55239 22.0706 1.55239H10.9317C7.5816 1.55239 4.89896 4.11186 4.89896 7.30789Z" fill="#18250C"/>
<path d="M22.0706 1.08667C25.6827 1.08667 28.5906 3.86122 28.5906 7.30746V11.5213L22.371 6.74006L19.5967 9.83796L16.5007 6.43825L13.4048 9.83796L10.6305 6.74006L4.41089 11.5213V7.30746C4.41089 3.86122 7.31878 1.08667 10.9311 1.08667H22.0708H22.0706Z" fill="#154C1E"/>
<path d="M20.4965 8.27396L19.4598 9.75239L16.353 6.60072L16.4828 5.90894L20.4965 8.27396ZM28.5907 8.79918V11.5212L22.3711 6.73994L22.2147 6.91465L22.3571 6.48955L28.5909 8.79918H28.5907ZM14.2864 8.40377L13.4047 9.83785L10.6655 6.77905L10.701 6.21708L14.2864 8.40377Z" fill="#0E3C15"/>
<path fill-rule="evenodd" clip-rule="evenodd" d="M22.0704 0.620361C25.9448 0.620361 29.0786 3.61163 29.0786 7.30789V12.4956L22.4346 7.38701L19.6004 10.5519L16.501 7.14784L13.4018 10.5519L10.5675 7.38701L3.92188 12.4956V7.30789C3.92188 3.61163 7.0573 0.620361 10.9317 0.620361H22.0706H22.0704ZM4.89901 7.30789V10.5485L10.6937 6.0936L13.4073 9.12434L16.5012 5.72716L19.5952 9.12434L22.3088 6.0936L28.1035 10.5485V7.30789C28.1035 4.11168 25.4209 1.55239 22.0708 1.55239H10.9319C7.58184 1.55239 4.89921 4.11168 4.89921 7.30789H4.89901ZM9.71014 12.6732C10.1838 12.2228 10.8262 11.9697 11.4961 11.9697C12.166 11.9697 12.8084 12.2228 13.2821 12.6732C13.7557 13.1237 14.0218 13.7345 14.0218 14.3714C14.0218 15.0084 13.7557 15.6192 13.2821 16.0697C12.8084 16.5199 12.166 16.773 11.4961 16.773C10.8262 16.773 10.1838 16.5199 9.71014 16.0697C9.23646 15.6192 8.9704 15.0084 8.9704 14.3714C8.9704 13.7345 9.23646 13.1237 9.71014 12.6732Z" fill="#18250C"/>
<path d="M0.489502 12.0237H4.41116V15.5239H0.489502V12.0237Z" fill="#4DA831"/>
<path fill-rule="evenodd" clip-rule="evenodd" d="M4.8988 11.5581V15.989H0V11.5581H4.8988ZM0.977331 15.0584H3.92337V12.4903H0.977331V15.0584Z" fill="#18250C"/>
<path d="M28.5903 12.0237H32.512V15.5239H28.5903V12.0237Z" fill="#4DA831"/>
<path d="M0.489258 10.9246H2.22738V16.623H0.489258V10.9246Z" fill="#8CD469"/>
<path fill-rule="evenodd" clip-rule="evenodd" d="M32.9999 11.5581V15.989H28.1011V11.5581H32.9999ZM29.0784 15.0584H32.0225V12.4903H29.0784V15.0584Z" fill="#18250C"/>
<path d="M30.7739 10.9246H32.5121V16.623H30.7739V10.9246Z" fill="#8CD469"/>
<path d="M19.31 18.468C19.31 19.4891 18.0571 20.6145 16.5005 20.6145C14.944 20.6145 13.6909 19.4891 13.6909 18.468C13.6909 18.468 14.1464 17.6792 16.5005 17.6792C18.8547 17.6792 19.31 18.468 19.31 18.468Z" fill="#18250C"/>
<path d="M18.8164 19.7473C18.2501 20.2548 17.4242 20.6147 16.5008 20.6147C15.5773 20.6147 14.7509 20.255 14.1846 19.7473C14.5914 19.1135 15.4735 18.5886 16.5008 18.5886C17.5282 18.5886 18.4099 19.1135 18.8164 19.7473Z" fill="#C83737"/>
<path fill-rule="evenodd" clip-rule="evenodd" d="M19.0089 17.6575C19.2552 17.7764 19.4273 17.9026 19.5425 18.01C19.6579 18.1173 19.7372 18.2422 19.7372 18.2422L19.7985 18.3471V18.4675C19.7985 19.16 19.3964 19.8029 18.8033 20.2805C18.2101 20.7581 17.4024 21.0803 16.5008 21.0803C15.5992 21.0803 14.7898 20.7581 14.1966 20.2805C13.6035 19.8029 13.2033 19.16 13.2033 18.4675V18.3471L13.2627 18.2422C13.2627 18.2422 13.3418 18.1175 13.4574 18.01C13.5728 17.9026 13.7466 17.7762 13.9928 17.6575C14.4852 17.4194 15.2665 17.2137 16.5006 17.2137C17.7349 17.2137 18.516 17.4194 19.0085 17.6575H19.0089ZM14.4348 18.4899C14.3383 18.5364 14.3103 18.5654 14.26 18.6018C14.3078 18.9099 14.457 19.2697 14.8278 19.5684C15.2504 19.9088 15.8461 20.1479 16.501 20.1479C17.1559 20.1479 17.7516 19.9086 18.1742 19.5684C18.5452 19.2697 18.6944 18.9098 18.7422 18.6018C18.6919 18.5654 18.6637 18.5364 18.5673 18.4899C18.2435 18.3337 17.6209 18.1443 16.501 18.1443C15.3812 18.1443 14.7585 18.3337 14.4348 18.4899ZM25.653 17.8948L25.0087 18.5093L25.4023 18.8853L25.2292 19.0504L24.8356 18.6742L24.183 19.2968L24.5514 19.649L24.38 19.8139L24.0105 19.4614L23.1653 20.2678L23.5218 20.6087L23.349 20.7738L22.9922 20.4329L22.1678 21.2192L21.9082 20.9733L22.7337 20.1858L22.4132 19.8793L22.5861 19.7142L22.9068 20.0207L23.7518 19.2145L23.4427 18.9195L23.6158 18.7544L23.9245 19.0495L24.5772 18.4269L24.2935 18.1557L24.4665 17.9908L24.7502 18.2618L25.3932 17.6482L25.653 17.8943V17.8948ZM10.4882 9.16204L9.84396 9.77669L10.2375 10.1529L10.0662 10.3162L9.67202 9.94072L9.01883 10.5639L9.3885 10.9166L9.21543 11.0799L8.84632 10.7285L8.00164 11.5343L8.35899 11.8745L8.18591 12.0396L7.82857 11.6994L7.00325 12.4868L6.74344 12.2391L7.56857 11.4519L7.24824 11.1469L7.42131 10.9817L7.74165 11.2868L8.58633 10.481L8.27776 10.1871L8.45083 10.022L8.75921 10.3162L9.41223 9.69323L9.12889 9.42347L9.30177 9.25854L9.58454 9.52884L10.2284 8.91455L10.488 9.16222L10.4882 9.16204ZM1.73837 10.4589C2.27125 10.4589 2.7157 10.8829 2.7157 11.3913V16.1575C2.7157 16.6657 2.27125 17.0879 1.73837 17.0879H0.977575C0.444693 17.0879 0.000244141 16.6657 0.000244141 16.1575V11.3913C0.000244141 10.8829 0.444693 10.4589 0.977575 10.4589H1.73837ZM0.977575 16.1575H1.73837V11.3913H0.977575V16.1575ZM32.0246 10.4589C32.5575 10.4589 33.0001 10.8829 33.0001 11.3913V16.1575C33.0001 16.6657 32.5575 17.0879 32.0246 17.0879H31.2619C30.729 17.0879 30.2846 16.6657 30.2846 16.1575V11.3913C30.2846 10.8829 30.729 10.4589 31.2619 10.4589H32.0246ZM31.2619 16.1575H32.0246V11.3913H31.2619V16.1575Z" fill="#18250C"/>
<path d="M10.1174 14.1975C10.2899 14.0335 10.5241 13.9413 10.7681 13.9413C11.2763 13.9413 11.6885 14.3331 11.6885 14.8163C11.6885 15.0486 11.5915 15.2711 11.419 15.4353C11.2463 15.5994 11.0122 15.6915 10.7683 15.6915C10.5243 15.6915 10.2901 15.5994 10.1176 15.4353C9.94487 15.2711 9.8479 15.0486 9.8479 14.8163C9.8479 14.5842 9.94487 14.3617 10.1176 14.1975H10.1174ZM12.3246 12.8713C12.5947 12.8713 12.8135 13.0795 12.8135 13.3363C12.8135 13.4596 12.7621 13.578 12.6704 13.665C12.5785 13.7523 12.4542 13.8012 12.3246 13.8012C12.1948 13.8012 12.0705 13.7523 11.9789 13.665C11.887 13.5778 11.8356 13.4596 11.8356 13.3363C11.8356 13.0795 12.0544 12.8713 12.3246 12.8713Z" fill="#DBF2D0"/>
<path d="M24.0309 14.3715C24.0309 15.0084 23.7649 15.6193 23.2912 16.0697C22.8175 16.52 22.1753 16.7731 21.5052 16.7731C20.8353 16.7731 20.1929 16.52 19.7192 16.0697C19.2456 15.6193 18.9795 15.0084 18.9795 14.3715C18.9795 13.7346 19.2456 13.1237 19.7192 12.6733C20.1929 12.2228 20.8353 11.9697 21.5052 11.9697C22.1751 11.9697 22.8175 12.2228 23.2912 12.6733C23.7649 13.1237 24.0309 13.7346 24.0309 14.3715Z" fill="#18250C"/>
<path d="M23.1534 14.8163C23.1534 15.0485 23.0565 15.271 22.8838 15.4353C22.7113 15.5993 22.4771 15.6914 22.233 15.6914C21.989 15.6914 21.7548 15.5993 21.5823 15.4353C21.4096 15.271 21.3128 15.0485 21.3128 14.8163C21.3128 14.333 21.7248 13.9413 22.2332 13.9413C22.4775 13.9413 22.7115 14.0334 22.884 14.1974C23.0567 14.3616 23.1536 14.5842 23.1536 14.8163H23.1534ZM21.1656 13.3362C21.1656 13.4595 21.1141 13.5779 21.0225 13.665C20.9306 13.7522 20.8063 13.8011 20.6767 13.8011C20.5469 13.8011 20.4226 13.7522 20.331 13.665C20.2391 13.5777 20.1877 13.4595 20.1877 13.3362C20.1877 13.0795 20.4067 12.8713 20.6769 12.8713C20.947 12.8713 21.1658 13.0795 21.1658 13.3362H21.1656ZM15.3663 3.13182C15.3663 3.31577 15.1124 3.49229 14.6607 3.62228C14.2089 3.75246 13.5961 3.82542 12.9571 3.82542C11.6264 3.82542 10.548 3.51492 10.548 3.13182C10.548 2.94788 10.8019 2.77154 11.2535 2.64137C11.7054 2.5112 12.3182 2.43823 12.9571 2.43823C14.2876 2.43823 15.3663 2.74873 15.3663 3.13182ZM9.74769 3.13182C9.74769 3.27702 9.66154 3.41625 9.50782 3.5189C9.3541 3.62138 9.14573 3.67913 8.92844 3.67913C8.47602 3.67913 8.10938 3.43417 8.10938 3.13182C8.10938 2.98681 8.19573 2.84758 8.34945 2.74493C8.50316 2.64227 8.71153 2.5847 8.92863 2.5847C9.38105 2.5847 9.74769 2.82966 9.74769 3.13182Z" fill="#DBF2D0"/>
</svg>
