<svg width="33" height="25" viewBox="0 0 33 25" fill="none" xmlns="http://www.w3.org/2000/svg">
<path d="M10.9308 0.58667H22.0701C25.6824 0.58667 28.5905 3.3612 28.5905 6.80723V17.4343C28.5905 20.8805 25.6824 23.6548 22.0701 23.6548H10.9308C7.31848 23.6548 4.4104 20.8805 4.4104 17.4343V6.80723C4.4104 3.3612 7.31848 0.58667 10.9308 0.58667Z" fill="#8CD469"/>
<path d="M22.0697 0.58667C25.6821 0.58667 28.5903 3.3612 28.5903 6.80741V17.4345C28.5903 20.8807 25.6819 23.6546 22.0697 23.6546H10.9304C7.44582 23.6546 4.61802 21.0728 4.42236 17.7967C5.09625 20.3109 7.4779 22.1592 10.329 22.1592H20.7462C24.1242 22.1592 26.8437 19.565 26.8437 16.3422V6.40404C26.8437 3.18142 24.1244 0.58667 20.7462 0.58667H22.0699H22.0697Z" fill="#4DA831"/>
<path fill-rule="evenodd" clip-rule="evenodd" d="M22.0704 0.120361C25.9448 0.120361 29.0785 3.10997 29.0785 6.80621V17.4345C29.0785 21.1308 25.9448 24.1204 22.0704 24.1204H10.9298C7.05535 24.1204 3.92163 21.1308 3.92163 17.4345V6.80621C3.92163 3.10979 7.05535 0.120361 10.9298 0.120361H22.0704ZM4.89896 6.80621V17.4345C4.89896 20.6305 7.57969 23.1882 10.9298 23.1882H22.0704C25.4204 23.1882 28.1012 20.6305 28.1012 17.4345V6.80621C28.1012 3.61002 25.4204 1.05257 22.0704 1.05257H10.9298C7.57969 1.05257 4.89896 3.61002 4.89896 6.80621Z" fill="#18250C"/>
<path d="M22.0699 0.58667C25.6823 0.58667 28.5901 3.3612 28.5901 6.80741V11.0213L22.3705 6.23983L19.5962 9.33771L16.5003 5.93803L13.4043 9.33771L10.6298 6.23983L4.4104 11.0213V6.80741C4.4104 3.3612 7.31829 0.58667 10.9304 0.58667H22.0701H22.0699Z" fill="#154C1E"/>
<path d="M20.4958 7.77369L19.4593 9.25212L16.3523 6.10047L16.4821 5.40869L20.4958 7.77369ZM28.5902 8.29891V11.0209L22.3706 6.23951L22.2142 6.41422L22.3566 5.98913L28.5904 8.29873L28.5902 8.29891ZM14.2859 7.90351L13.4042 9.33757L10.665 6.2788L10.7005 5.71683L14.2859 7.90333V7.90351Z" fill="#0E3C15"/>
<path fill-rule="evenodd" clip-rule="evenodd" d="M22.0704 0.120361C25.9448 0.120361 29.0785 3.11161 29.0785 6.80784V11.9955L22.4345 6.88696L19.5984 10.0518L16.5007 6.64798L13.4015 10.0518L10.5673 6.88696L3.92163 11.9955V6.80784C3.92163 3.11161 7.05535 0.120361 10.9298 0.120361H22.0704ZM4.89896 6.80784V10.0468L10.6937 5.59193L13.4072 8.62445L16.5011 5.22731L19.5933 8.62445L22.3085 5.59193L28.1014 10.0468V6.80784C28.1014 3.61184 25.4206 1.05257 22.0706 1.05257H10.9299C7.57988 1.05257 4.89915 3.61184 4.89915 6.80784H4.89896Z" fill="#18250C"/>
<path d="M0.489014 11.5234H4.41066V15.0236H0.489014V11.5234Z" fill="#4DA831"/>
<path fill-rule="evenodd" clip-rule="evenodd" d="M4.89904 11.0564V15.489H0.000244141V11.0564H4.89904ZM0.977575 14.5568H3.92171V11.9886H0.977575V14.5568Z" fill="#18250C"/>
<path d="M28.5896 11.5234H32.5115V15.0236H28.5896V11.5234Z" fill="#4DA831"/>
<path d="M0.48877 10.4243H2.2269V16.1227H0.48877V10.4243Z" fill="#8CD469"/>
<path fill-rule="evenodd" clip-rule="evenodd" d="M33.0001 11.0564V15.489H28.1013V11.0564H33.0001ZM29.0786 14.5568H32.0228V11.9886H29.0786V14.5568Z" fill="#18250C"/>
<path d="M30.7737 10.4243H32.5118V16.1227H30.7737V10.4243Z" fill="#8CD469"/>
<path fill-rule="evenodd" clip-rule="evenodd" d="M15.038 17.9407C15.1298 18.0284 15.1813 18.1468 15.1813 18.2704C15.1813 19.0576 15.7794 19.6482 16.5009 19.6482C17.2227 19.6482 17.8208 19.0576 17.8208 18.2704C17.8208 18.1466 17.8722 18.0282 17.9639 17.9407C18.0558 17.8533 18.1801 17.8042 18.3095 17.8042C18.5786 17.8051 18.7962 18.0135 18.7962 18.2704C18.7962 19.5258 17.783 20.5804 16.5009 20.5804C15.2192 20.5804 14.2039 19.5258 14.2039 18.2704C14.2039 18.1466 14.2554 18.0282 14.347 17.9407C14.4385 17.8533 14.563 17.8042 14.6924 17.8042C14.822 17.8042 14.9463 17.8533 15.0378 17.9407H15.038ZM25.651 17.3949L25.0073 18.009L25.4022 18.3857L25.2292 18.5492L24.8352 18.1734L24.182 18.7965L24.5513 19.1496L24.3782 19.3147L24.0089 18.9616L23.1639 19.7678L23.5218 20.1093L23.3489 20.2728L22.9917 19.9321L22.166 20.7198L21.9083 20.4721L22.7333 19.6851L22.4133 19.3799L22.5847 19.2148L22.9056 19.5209L23.751 18.7143L23.443 18.42L23.6161 18.255L23.9241 18.5494L24.5771 17.9264L24.294 17.6563L24.4653 17.4912L24.7494 17.762L25.3941 17.147L25.6518 17.3947L25.651 17.3949ZM10.488 8.6621L9.84428 9.2762L10.2373 9.65115L10.0644 9.81627L9.6714 9.44132L9.01858 10.0641L9.38636 10.415L9.21499 10.5799L8.84588 10.2285L8.00064 11.0349L8.35665 11.3745L8.18358 11.5396L7.82794 11.1996L7.00281 11.9868L6.74301 11.7392L7.56852 10.9516L7.24799 10.6451L7.42107 10.4816L7.74103 10.7869L8.58608 9.98066L8.27751 9.68682L8.45059 9.52188L8.75878 9.8159L9.4116 9.19311L9.12865 8.92316L9.30153 8.75805L9.58467 9.02817L10.2284 8.41406L10.488 8.66173V8.6621ZM1.73813 9.9573C2.27101 9.9573 2.71546 10.3813 2.71546 10.8897V15.6559C2.71546 16.1643 2.27101 16.5883 1.73813 16.5883H0.97733C0.444448 16.5883 0 16.1643 0 15.6559V10.8897C0 10.3815 0.444448 9.9573 0.97733 9.9573H1.73813ZM0.97733 15.6557H1.73813V10.8895H0.97733V15.6557ZM32.0225 9.9573C32.5554 9.9573 32.9998 10.3813 32.9998 10.8897V15.6559C32.9998 16.1643 32.5554 16.5883 32.0225 16.5883H31.2617C30.7288 16.5883 30.2843 16.1643 30.2843 15.6559V10.8897C30.2843 10.3815 30.7288 9.9573 31.2617 9.9573H32.0225ZM31.2617 15.6557H32.0225V10.8895H31.2617V15.6557Z" fill="#18250C"/>
<path d="M15.3657 2.63158C15.3657 3.01485 14.287 3.32535 12.9565 3.32535C11.6258 3.32535 10.5473 3.01485 10.5473 2.63158C10.5473 2.24848 11.626 1.93799 12.9565 1.93799C14.287 1.93799 15.3657 2.24848 15.3657 2.63158ZM9.74725 2.63158C9.74725 2.93392 9.38061 3.17888 8.92819 3.17888C8.47577 3.17888 8.10913 2.93392 8.10913 2.63158C8.10913 2.32941 8.47596 2.08427 8.92819 2.08427C9.3808 2.08427 9.74725 2.32923 9.74725 2.63158Z" fill="#DBF2D0"/>
<path d="M23.8012 14.3264C23.8012 14.4501 23.7498 14.5686 23.6581 14.6561C23.5663 14.7435 23.4419 14.7926 23.3125 14.7926C23.1829 14.7926 23.0586 14.7435 22.9669 14.6561C22.8753 14.5685 22.8239 14.4499 22.8239 14.3264C22.8239 13.5392 22.2259 12.9505 21.5042 12.9505C20.7825 12.9505 20.1843 13.5392 20.1843 14.3264C20.1845 14.5833 19.9668 14.7917 19.6975 14.7926C19.5679 14.7926 19.4436 14.7435 19.3522 14.6561C19.2603 14.5685 19.2091 14.4499 19.2091 14.3264C19.2091 13.071 20.2223 12.0181 21.5044 12.0181C22.7863 12.0181 23.8014 13.071 23.8014 14.3264H23.8012ZM13.7928 14.3264C13.7929 14.4501 13.7413 14.5686 13.6497 14.6561C13.558 14.7435 13.4337 14.7926 13.3043 14.7926C13.1745 14.7926 13.0504 14.7435 12.9587 14.6561C12.867 14.5685 12.8156 14.4499 12.8156 14.3264C12.8156 13.5392 12.2174 12.9505 11.4957 12.9505C10.774 12.9505 10.1761 13.5392 10.1761 14.3264C10.1761 14.4501 10.1244 14.5686 10.033 14.6561C9.94131 14.7435 9.81701 14.7926 9.6874 14.7926C9.55778 14.7926 9.43348 14.7435 9.34182 14.6561C9.25016 14.5685 9.19873 14.4499 9.19873 14.3264C9.19873 13.071 10.2136 12.0181 11.4957 12.0181C12.7777 12.0181 13.7928 13.071 13.7928 14.3264Z" fill="#18250C"/>
</svg>
